<?xml version="1.0" standalone="no"?>
<!DOCTYPE svg PUBLIC "-//W3C//DTD SVG 20010904//EN"
 "http://www.w3.org/TR/2001/REC-SVG-20010904/DTD/svg10.dtd">
<svg version="1.0" xmlns="http://www.w3.org/2000/svg"
 width="1029.000000pt" height="622.000000pt" viewBox="0 0 1029.000000 622.000000"
 preserveAspectRatio="xMidYMid meet">

<g transform="translate(0.000000,622.000000) scale(0.100000,-0.100000)"
fill="#000000" stroke="none">
<path d="M1024 5609 c-208 -199 -380 -367 -382 -374 -1 -6 64 -74 145 -150 81
-77 252 -240 379 -362 128 -123 234 -223 237 -223 7 0 761 719 765 729 2 7
-321 321 -704 683 l-61 58 -379 -361z m613 -598 c-122 -124 -225 -226 -230
-226 -4 0 -109 101 -232 225 l-225 225 227 227 228 228 227 -227 227 -227
-222 -225z"/>
<path d="M1843 4797 c-348 -348 -415 -418 -404 -430 17 -22 55 -29 88 -16 36
13 738 713 758 756 17 35 12 75 -11 94 -13 10 -86 -58 -431 -404z"/>
<path d="M401 4086 c-211 -211 -291 -298 -285 -307 4 -8 136 -144 293 -302
185 -187 290 -286 299 -282 8 3 29 0 47 -6 18 -7 44 -9 61 -5 30 8 410 375
465 450 32 43 37 82 15 112 -11 14 -12 22 -3 33 9 11 -46 71 -286 307 -163
162 -301 294 -305 294 -4 0 -139 -132 -301 -294z m534 -66 l230 -230 -232
-232 -231 -231 -231 224 c-127 123 -231 231 -231 239 0 16 439 460 455 460 6
0 114 -104 240 -230z"/>
<path d="M1920 4119 l-195 -189 195 -195 195 -195 193 193 192 192 -192 192
-193 191 -195 -189z"/>
<path d="M2365 3670 c-217 -218 -229 -232 -211 -245 25 -19 59 -19 94 -1 15 8
107 95 205 193 164 166 177 182 177 215 0 44 -8 68 -24 68 -6 0 -115 -104
-241 -230z"/>
<path d="M8502 3594 c-34 -6 -65 -13 -67 -16 -3 -3 26 -11 65 -18 39 -7 72
-11 75 -9 2 3 1 16 -3 30 -7 24 -7 24 -70 13z"/>
<path d="M1441 3296 l-124 -125 100 -108 c55 -59 110 -117 122 -127 l22 -20
127 127 127 127 -125 125 -125 125 -124 -124z"/>
<path d="M9728 3184 c-27 -25 -48 -49 -48 -54 0 -4 21 -27 46 -49 l46 -41 38
30 c69 55 69 55 14 110 l-49 49 -47 -45z m84 -21 l28 -27 -32 -33 -32 -33 -33
32 -33 32 27 28 c33 35 40 35 75 1z"/>
<path d="M2087 2972 l-177 -177 180 -180 180 -180 177 178 178 177 -180 180
-180 180 -178 -178z m367 -233 c-31 -32 -85 -88 -120 -126 l-64 -68 -125 125
-125 125 122 122 123 123 122 -122 123 -123 -56 -56z"/>
<path d="M1725 3000 c-133 -134 -139 -142 -121 -156 51 -38 124 -1 230 117 64
70 81 111 64 146 -7 15 -18 28 -23 30 -6 2 -73 -60 -150 -137z"/>
<path d="M9640 2975 l-34 -35 37 -38 37 -37 37 37 37 38 -34 35 c-19 19 -37
35 -40 35 -3 0 -21 -16 -40 -35z m75 -5 l29 -30 -32 -33 -32 -32 -32 32 -32
33 29 30 c16 16 32 30 35 30 3 0 19 -14 35 -30z"/>
<path d="M9655 2960 c-18 -20 -18 -21 3 -43 l22 -21 22 21 c21 22 21 23 3 43
-10 11 -21 20 -25 20 -4 0 -15 -9 -25 -20z"/>
<path d="M9845 2980 c-17 -19 -17 -21 1 -42 10 -13 20 -25 21 -27 2 -3 14 6
28 19 l25 24 -22 23 c-26 28 -30 28 -53 3z"/>
<path d="M9781 2866 c-17 -20 13 -43 34 -26 12 10 13 16 4 26 -6 8 -15 14 -19
14 -4 0 -13 -6 -19 -14z"/>
<path d="M9865 2830 c-18 -20 -18 -21 5 -45 22 -23 25 -24 42 -8 23 20 23 36
0 56 -23 21 -25 21 -47 -3z m45 -6 c11 -12 10 -18 -3 -32 -16 -15 -18 -15 -34
0 -13 14 -14 20 -3 32 7 9 16 16 20 16 4 0 13 -7 20 -16z"/>
<path d="M2502 2557 c-224 -224 -225 -226 -161 -242 44 -11 83 18 244 179 163
162 179 188 155 247 -7 16 -15 29 -19 29 -3 0 -102 -96 -219 -213z"/>
<path d="M9770 2745 c-10 -12 -10 -18 0 -30 12 -14 15 -14 31 1 14 13 16 20 8
31 -15 17 -24 17 -39 -2z"/>
<path d="M9728 2679 l22 -26 -20 -18 c-19 -18 -21 -18 -40 0 -12 11 -18 25
-15 34 5 13 4 14 -7 3 -10 -10 -7 -17 15 -39 l27 -28 25 26 26 25 -28 25 -28
24 23 -26z"/>
<path d="M875 2530 c-121 -123 -129 -133 -111 -145 12 -9 25 -11 35 -6 22 12
231 227 231 238 0 5 -6 17 -13 26 -11 16 -26 4 -142 -113z"/>
<path d="M9820 2643 c0 -5 10 -19 23 -31 l23 -22 30 32 c28 32 28 32 2 9 l-28
-24 -25 23 c-14 13 -25 19 -25 13z"/>
<path d="M1370 2375 l-125 -125 128 -128 127 -127 127 128 127 128 -124 124
c-69 69 -127 125 -130 125 -3 0 -61 -56 -130 -125z"/>
<path d="M1721 2036 c-131 -131 -192 -199 -188 -209 9 -23 61 -31 94 -13 38
19 290 271 309 308 16 32 12 79 -10 97 -9 8 -62 -40 -205 -183z"/>
<path d="M3325 2120 l-49 -50 44 -45 c24 -25 49 -45 55 -45 6 0 31 20 55 45
l44 45 -50 50 -49 50 -50 -50z m88 -18 l27 -28 -33 -32 -33 -32 -29 30 -29 30
29 30 c16 17 32 30 35 30 3 0 18 -13 33 -28z"/>
<path d="M705 1890 l-200 -200 195 -195 c107 -107 199 -195 205 -195 6 0 98
88 205 195 l195 195 -200 200 -200 200 -200 -200z m350 -350 l-150 -150 -150
150 -150 150 150 150 150 150 150 -150 150 -150 -150 -150z"/>
<path d="M1895 1769 l-200 -200 199 -195 200 -195 198 198 198 198 -198 198
-197 197 -200 -201z m492 -199 c-1 -3 -69 -70 -150 -150 l-147 -145 -148 148
-147 147 150 150 150 150 147 -147 c82 -81 147 -150 145 -153z"/>
<path d="M3237 1912 l-37 -38 40 -39 40 -39 40 39 40 39 -37 38 c-20 21 -40
38 -43 38 -3 0 -23 -17 -43 -38z m75 1 c35 -33 35 -40 2 -74 l-27 -28 -33 27
c-19 15 -34 31 -34 36 0 10 50 66 59 66 3 0 18 -12 33 -27z"/>
<path d="M3262 1897 l-22 -24 20 -18 c20 -18 21 -18 43 3 l21 22 -20 20 -20
20 -22 -23z"/>
<path d="M3447 1922 c-22 -24 -21 -35 3 -57 20 -18 21 -18 45 5 l25 24 -22 23
c-26 28 -30 28 -51 5z"/>
<path d="M3382 1807 c-7 -8 -7 -17 2 -29 12 -17 14 -17 29 0 13 14 14 21 5 30
-15 15 -23 15 -36 -1z"/>
<path d="M3505 1770 c10 -11 20 -20 23 -20 3 0 -3 9 -13 20 -10 11 -20 20 -23
20 -3 0 3 -9 13 -20z"/>
<path d="M3469 1728 c23 -26 26 -27 43 -11 10 9 18 19 18 22 0 3 -8 -2 -17
-12 -16 -16 -19 -15 -43 6 l-25 22 24 -27z"/>
<path d="M3370 1685 c-11 -13 -11 -19 1 -31 12 -12 18 -12 33 -1 16 12 16 14
-2 30 -17 16 -20 16 -32 2z"/>
<path d="M1120 1465 c-204 -205 -204 -205 -141 -222 15 -3 37 1 56 12 51 27
302 285 311 319 7 31 -4 77 -21 83 -6 2 -98 -85 -205 -192z"/>
<path d="M3281 1616 l-23 -24 21 -21 c27 -27 33 -26 60 2 21 23 21 25 4 38
-16 12 -17 12 -6 -2 11 -13 9 -19 -7 -34 -19 -17 -21 -17 -40 0 l-20 18 22 24
c12 13 19 23 16 23 -2 0 -15 -11 -27 -24z"/>
<path d="M3485 1607 l27 -22 -21 -19 c-20 -18 -22 -18 -48 -1 l-28 17 28 -28
27 -29 27 27 27 27 -24 26 c-13 14 -27 25 -32 25 -5 0 3 -10 17 -23z"/>
<path d="M2313 1354 l-196 -197 23 -19 c28 -22 58 -23 90 -2 54 36 300 290
310 320 11 33 1 76 -20 89 -6 4 -93 -77 -207 -191z"/>
<path d="M6577 817 c-9 -30 -17 -58 -17 -64 0 -9 99 -53 120 -53 9 0 40 96 40
122 0 12 -87 48 -117 48 -5 0 -17 -24 -26 -53z m84 11 c33 -9 38 -14 33 -32
-18 -58 -25 -68 -40 -62 -9 3 -27 9 -40 12 -27 7 -29 17 -13 63 13 36 10 35
60 19z"/>
<path d="M6379 823 c-27 -71 -25 -79 24 -93 46 -12 67 -8 67 13 0 8 -4 7 -9
-2 -8 -12 -16 -13 -50 -2 -23 6 -41 15 -41 20 0 7 21 73 25 79 5 6 72 -23 83
-37 13 -14 13 -14 10 3 -2 12 -18 23 -48 32 -25 8 -46 14 -48 14 -1 0 -7 -12
-13 -27z"/>
<path d="M6396 794 c-5 -18 -3 -30 6 -35 25 -16 46 -9 52 17 8 31 8 30 -25 39
-23 6 -27 3 -33 -21z"/>
<path d="M6387 663 c-13 -12 -7 -31 12 -36 13 -3 21 1 24 14 7 26 -18 41 -36
22z"/>
<path d="M6496 648 c-10 -38 -7 -46 20 -52 29 -8 38 -2 48 30 5 18 1 24 -25
33 -18 6 -33 11 -34 11 -2 0 -5 -10 -9 -22z"/>
<path d="M6267 600 c-3 -11 -1 -20 3 -20 5 0 15 -3 23 -6 9 -3 16 2 20 15 3
12 -1 22 -10 25 -24 10 -30 7 -36 -14z"/>
<path d="M6365 521 c17 -17 57 -18 62 -1 3 11 2 12 -5 2 -7 -10 -15 -10 -38
-2 -19 7 -25 8 -19 1z"/>
</g>
</svg>
