<svg xmlns="http://www.w3.org/2000/svg" width="115.613" height="167.427" viewBox="0 0 115.613 167.427">
  <g id="Group_754" data-name="Group 754" transform="translate(-715.179 -183.302)">
    <g id="Group_751" data-name="Group 751" transform="translate(715.679 183.302)">
      <path id="Exclusion_1" data-name="Exclusion 1" d="M5.23,54.947c-.509,0-1.023-.006-1.521-.011H3.677c-.495-.006-1.006-.011-1.509-.011s-.923.006-1.322.017H.789a.812.812,0,0,1-.613-.195,1.116,1.116,0,0,1-.159-.83c0-.083.008-.168.008-.249C.015,49.4.015,45.079.016,40.9v-.725q0-1.489,0-2.979H.007c0-1.621,0-3.278,0-4.741C0,28.792,0,25,.014,21.255c.016-3.368,1.453-6.282,3.052-9.218A24,24,0,0,1,8.823,4.932,21.478,21.478,0,0,1,16.88.783,21.286,21.286,0,0,1,22.491,0a19.007,19.007,0,0,1,11.15,3.655,27.525,27.525,0,0,1,3.506,2.935,24.225,24.225,0,0,1,2.836,3.383,23.683,23.683,0,0,1,2.157,3.847,25.906,25.906,0,0,1,1.47,4.329,33.09,33.09,0,0,1,.882,7.943c0,2.541,0,5.176,0,7.5,0,6.219-.006,12.65.031,18.981a1.759,1.759,0,0,1-.333,1.288,1.265,1.265,0,0,1-.945.293c-.083,0-.173,0-.267-.01-.5-.035-1.038-.051-1.684-.051-.477,0-.962.009-1.431.018h0c-.47.009-.956.018-1.437.018a19.412,19.412,0,0,1-2.806-.167,17.074,17.074,0,0,1-4.039-1.113,24.529,24.529,0,0,1-3.713-1.919l-.119-.074a27.97,27.97,0,0,1-4.85-3.513c-.177-.172-.361-.349-.544-.349-.156,0-.3.122-.459.385a11.191,11.191,0,0,1-1.844,2.32,13.416,13.416,0,0,1-2.251,1.739,30.693,30.693,0,0,1-5.238,2.447,15.057,15.057,0,0,1-3.637.878A30.853,30.853,0,0,1,5.23,54.947ZM16.472,12.088a1.9,1.9,0,0,0-.9.37l-.114.069c-2.226,1.343-3.38,3.561-4.495,5.706l-.094.181-.069.132-.016.031a5.763,5.763,0,0,0-.877,2.659c0,1.989.016,4.011.028,5.967v.092c.01,1.856.021,3.775.026,5.662.007,2.47.005,4.875,0,7.421v.182c0,1.042,0,2.119,0,3.194,3.439-1.343,7.179-5.867,7.044-10.21-.143-4.6-.112-9.279-.083-13.806v0c.013-2.078.027-4.228.024-6.342a2.823,2.823,0,0,1,.032-.356c.045-.347.092-.706-.207-.871A.614.614,0,0,0,16.472,12.088ZM27.55,11.6a.274.274,0,0,0-.2.082,1.171,1.171,0,0,0-.171.8c.024,2.66.02,5.361.015,7.974,0,.961,0,1.828,0,2.7,0,3.943,0,7.208,0,10.276,0,.1-.006.2-.012.3a1.8,1.8,0,0,0,.056.745c1.269,3.24,2.961,6.463,6.709,8.1a1.355,1.355,0,0,0,.507.139.292.292,0,0,0,.221-.08c.121-.124.116-.383.109-.658q0-.045,0-.09c-.043-2.319-.008-4.677.026-6.957a115.755,115.755,0,0,0-.278-12.656A13.973,13.973,0,0,0,28.2,11.893,1.293,1.293,0,0,0,27.55,11.6Z" transform="translate(35.142 34.421)" fill="#fe9c00" stroke="rgba(0,0,0,0)" stroke-width="1"/>
      <path id="Exclusion_3" data-name="Exclusion 3" d="M.9,70.13a.921.921,0,0,1-.675-.2c-.193-.193-.206-.512-.2-.941.012-3.055.01-6.144.009-9.131,0-1.051,0-2.242,0-3.386q0-5.425,0-10.849v-.069c0-14.386,0-29.261-.032-43.891A1.835,1.835,0,0,1,.331.311,1.519,1.519,0,0,1,1.453,0c.063,0,.131,0,.2,0C2.787.042,4.032.06,5.574.06c.784,0,1.594,0,2.309-.008s1.5-.008,2.29-.008c.4,0,.757,0,1.1,0a11.153,11.153,0,0,1,4.078.776,9.977,9.977,0,0,1,3.27,2.108,9.818,9.818,0,0,1,2.2,3.2,10.794,10.794,0,0,1,.854,4.041c.089,4.108.1,8.456.033,14.1a11.919,11.919,0,0,1-1.1,5.072,10.01,10.01,0,0,1-1.39,2.134,11.208,11.208,0,0,1-2,1.828.692.692,0,0,0-.161.2c-.027.043-.057.093-.094.143A13.683,13.683,0,0,1,19.5,35.437a9.929,9.929,0,0,1,1.824,2.181,9.342,9.342,0,0,1,1.083,2.606,11.805,11.805,0,0,1,.325,3.067c-.056,3.107-.044,6.267-.031,9.324v0c.006,1.561.013,3.175.01,4.77a17.466,17.466,0,0,1-.259,3.033,13.545,13.545,0,0,1-.809,2.8,12.033,12.033,0,0,1-1.425,2.527,12.841,12.841,0,0,1-2.107,2.226,8.506,8.506,0,0,1-5.027,2.018c-1.826.112-3.646.126-5.028.126-.715,0-1.438,0-2.137-.009-.659,0-1.407-.008-2.123-.008-1.094,0-1.994.01-2.831.032ZM7.4,35.753a.994.994,0,0,0-.744.216,1.21,1.21,0,0,0-.226.9c.029,3.318.025,6.692.021,9.955v.02c0,1.241,0,2.358,0,3.47,0,1.19,0,2.4.007,3.572V53.9c.009,3.143.018,6.392-.038,9.591-.02,1.164.443,1.391,1.424,1.437.123.006.248.009.37.009a7.768,7.768,0,0,0,7.767-7.559c.065-3.742.054-7.548.043-11.229v0c-.005-1.671-.01-3.4-.008-5.112a4.144,4.144,0,0,0-1.979-3.515,11.6,11.6,0,0,0-6.5-1.764ZM7.391,5.5a.976.976,0,0,0-.729.221,1.3,1.3,0,0,0-.238.954c.038,2.746.032,5.536.026,8.234,0,.973,0,1.978,0,2.972,0,2.963,0,6.471,0,10.019a5.389,5.389,0,0,0,.292,2.244c.228.435.628.62,1.339.62A10.6,10.6,0,0,0,9.7,30.587c.286-.046.582-.1.905-.174,2.6-.577,4.375-2.42,4.407-4.587.085-5.811.055-11.652.017-17.137a2.729,2.729,0,0,0-2.08-2.711,11.451,11.451,0,0,0-3.761-.437h0c-.52,0-1.058,0-1.586-.037C7.525,5.5,7.455,5.5,7.391,5.5Z" transform="translate(0 95.844)" fill="#fd130b" stroke="rgba(0,0,0,0)" stroke-width="1"/>
      <path id="Exclusion_2" data-name="Exclusion 2" d="M4,70.654a1.212,1.212,0,0,1-.908-.283,1.864,1.864,0,0,1-.341-1.358c.056-6.959.049-14.035.042-20.878v-.008c0-2.215,0-4.505,0-6.792,0-.193-.005-.39-.01-.581v0a10.1,10.1,0,0,1,.019-1.26,1.274,1.274,0,0,0-.191-.995.75.75,0,0,0-.59-.217,2.02,2.02,0,0,0-.368.038,3.153,3.153,0,0,1-.573.06,1.026,1.026,0,0,1-.8-.288A1.789,1.789,0,0,1,.023,36.7a27.474,27.474,0,0,0,.022-3.688v-.037q0-.113-.009-.226a1.13,1.13,0,0,1,.194-.867,1.072,1.072,0,0,1,.8-.23c.861,0,1.321-.014,1.544-.252s.221-.684.221-1.577c0-2.189,0-4.482,0-6.325,0-7.21.007-14.665-.028-22.013,0-.644.081-.992.29-1.2A1.376,1.376,0,0,1,4.072,0L4.2,0c2.1.054,3.959.081,5.673.081,1.634,0,3.14-.023,4.607-.071.1,0,.207-.005.31-.005a7.677,7.677,0,0,1,4,1.056A10.483,10.483,0,0,1,21.81,3.877a13.692,13.692,0,0,1,2.238,4.605,24.633,24.633,0,0,1,.808,5.038,59.329,59.329,0,0,1,.159,5.983,35.4,35.4,0,0,1-.648,5.959,15.233,15.233,0,0,1-4.336,8.372l-.225.211-.005,0h0c-.144.134-.293.273-.434.415a.528.528,0,0,0-.092.157c-.016.035-.034.075-.057.118A10.623,10.623,0,0,1,21.6,36.1a7.834,7.834,0,0,1,1.7,1.786,7.556,7.556,0,0,1,1.026,2.211,9.7,9.7,0,0,1,.344,2.63c0,2.988,0,6.106,0,8.856,0,5.773,0,11.743.022,17.636a1.587,1.587,0,0,1-.288,1.173,1.065,1.065,0,0,1-.8.248c-.088,0-.184,0-.287-.013-.533-.046-1.092-.069-1.661-.069s-1.163.023-1.763.07c-.124.01-.235.014-.338.014a1.218,1.218,0,0,1-.907-.275,1.683,1.683,0,0,1-.317-1.233c.045-6.526.039-13.162.033-19.58v-.021c0-2.167,0-4.409,0-6.628a4.7,4.7,0,0,0-1.142-3.438A4.668,4.668,0,0,0,13.8,38.317c-.346,0-.7.007-1.039.014h0c-.341.007-.694.014-1.042.014-.518,0-.944-.016-1.34-.05-.1-.009-.2-.013-.28-.013a1,1,0,0,0-.749.231A1.491,1.491,0,0,0,9.074,39.6C9.1,47.2,9.1,54.929,9.1,62.4c0,1.887,0,4.235,0,6.461,0,1.736,0,1.736-1.744,1.74H7.318c-.291,0-.586-.006-.845-.012H6.466c-.275-.006-.56-.012-.843-.012a11.273,11.273,0,0,0-1.171.052A4.385,4.385,0,0,1,4,70.654ZM12.35,31.665c.18,0,.365.015.545.029s.371.029.556.029a1.62,1.62,0,0,0,1.154-.386c1.787-1.634,3.513-3.527,4.035-6.286a39.079,39.079,0,0,0,.384-10.239,15.413,15.413,0,0,0-2.071-7A4.105,4.105,0,0,0,13.3,5.466c-.138,0-.281.006-.425.019-.424.037-.857.056-1.289.056-.449,0-.9-.02-1.345-.06-.094-.008-.181-.013-.26-.013a.887.887,0,0,0-.667.208,1.3,1.3,0,0,0-.236.964c.038,2.9.032,5.842.026,8.69v.011c0,1.033,0,2.1,0,3.159q0,5.008,0,10.016c0,1.444,0,2.24.313,2.665s.9.487,2.189.487c.217,0,.455,0,.722,0Z" transform="translate(25.809 95.349)" fill="#fc140c" stroke="rgba(0,0,0,0)" stroke-width="1"/>
      <path id="Path_3990" data-name="Path 3990" d="M973.3,549.858a11.5,11.5,0,0,1,7.05-3.095c4.931-.289,7.568,2.933,8.359,7.034a25.5,25.5,0,0,1,.336,4.855q-.02,28.009-.008,56.019c0,2.135,0,2.135-2.2,2.139-.923,0-1.852-.067-2.766.02-1.081.1-1.29-.338-1.289-1.345q.045-28.4.022-56.81,0-.461,0-.923c-.007-3.435-1.2-4.975-3.844-4.983a5.339,5.339,0,0,0-5.657,5.3q-.017,28.6.018,57.206c0,1.183-.26,1.652-1.492,1.561a27.937,27.937,0,0,0-3.82,0c-1.021.064-1.247-.331-1.233-1.288.053-3.558.023-7.117.022-10.676q0-28.339-.035-56.678c0-1.155.275-1.569,1.46-1.467a24.006,24.006,0,0,0,3.688,0c1.087-.074,1.549.281,1.395,1.4A14.93,14.93,0,0,0,973.3,549.858Z" transform="translate(-900.543 -450.858)" fill="#fc140c"/>
      <path id="Path_3991" data-name="Path 3991" d="M1067.489,580.062c0-8.085-.114-16.172.048-24.254.079-3.942,1.644-7.447,5.188-9.517,4.81-2.808,12.628-2.473,15.324,6.284a44.834,44.834,0,0,1,1.676,13.01c.005.737-.3.877-.937.861-1.317-.032-2.638-.047-3.954.012-.811.037-1.051-.243-1.043-1.046a34.838,34.838,0,0,0-.414-8.008,11.97,11.97,0,0,0-1.524-4.027,3.8,3.8,0,0,0-6.4-.491,7.626,7.626,0,0,0-2.021,5.154q-.04,22.411,0,44.822a11.52,11.52,0,0,0,.952,4.477,4.088,4.088,0,0,0,4.36,2.885,4.332,4.332,0,0,0,4.1-3.14,18.911,18.911,0,0,0,.932-6.218c.059-5.712.011-11.425.053-17.137.007-.933-.295-1.224-1.2-1.2-1.58.049-3.164-.038-4.745,0-.685.015-.923-.187-.9-.888q.071-2.173,0-4.349c-.023-.718.259-.883.923-.878q5.4.039,10.811,0c.716-.006.99.165.988.938-.024,8.525.115,17.052-.067,25.573a16.4,16.4,0,0,1-4.545,11.464c-3.906,4.03-14.293,3.365-16.541-4.252a38.588,38.588,0,0,1-1.156-10.7c-.033-3.251-.006-6.5-.006-9.755q0-4.812,0-9.624Z" transform="translate(-974.617 -449.4)" fill="#fe130b"/>
      <path id="Path_3992" data-name="Path 3992" d="M876.113,204.218c2.628-.45,5.178-.809,7.692-1.339,3.188-.671,3.681-.233,2.96,2.922-1.384,6.054-7.412,11-13.366,10.875a10.8,10.8,0,0,1-9.793-5.836,75.333,75.333,0,0,1-5.4-12.069c-1.353-4.1-.463-6.869,3.141-9.223a39.415,39.415,0,0,1,14.832-6.093c3.648-.634,6.195.693,7.9,3.991a30.037,30.037,0,0,1,1.241,2.892c1.079,2.769,2.091,3.315,4.945,2.534a11.992,11.992,0,0,1,5.6-.242c.589.118,1.269.166,1.44.925a1.644,1.644,0,0,1-.828,1.776,34.44,34.44,0,0,1-9.435,4.5c-3.469,1.218-6.923,2.477-10.384,3.715C876.46,203.622,876.213,203.614,876.113,204.218Z" transform="translate(-820.174 -183.302)" fill="#fe130b"/>
      <path id="Path_3993" data-name="Path 3993" d="M928.094,581.833c0,11.154-.022,22.307.031,33.461.006,1.252-.375,1.589-1.546,1.5a25.466,25.466,0,0,0-3.555.005c-.959.061-1.292-.209-1.265-1.231.074-2.852.026-5.708.026-8.562q0-29.377-.029-58.754c0-1.271.3-1.715,1.585-1.573a15.165,15.165,0,0,0,3.157,0c1.244-.125,1.63.252,1.623,1.56-.055,11.2-.031,22.395-.031,33.592Z" transform="translate(-867.404 -450.821)" fill="#fd140c"/>
    </g>
  </g>
</svg>
