<svg xmlns="http://www.w3.org/2000/svg" xmlns:xlink="http://www.w3.org/1999/xlink" width="757.446" height="794.995" viewBox="0 0 757.446 794.995">
  <defs>
    <linearGradient id="linear-gradient" x1="0.5" x2="0.5" y2="1" gradientUnits="objectBoundingBox">
      <stop offset="0" stop-color="#cee2be"/>
      <stop offset="1" stop-color="#def2d2"/>
    </linearGradient>
    <clipPath id="clip-path">
      <path id="Path_60624" data-name="Path 60624" d="M848.5,645.5Q847,791,717,891.5T454,901Q321,810,195,733.5T108,514q39-143,110-261.5t205.5-101Q558,169,710,182.5T856,348Q850,500,848.5,645.5Z" fill="url(#linear-gradient)"/>
    </clipPath>
    <linearGradient id="linear-gradient-2" x1="0" x2="1" y2="0" xlink:href="#linear-gradient"/>
  </defs>
  <g id="auth_bg_shape" transform="translate(-98.782 -149.248)" clip-path="url(#clip-path)">
    <path id="Path_60623" data-name="Path 60623" d="M848.5,645.5Q847,791,717,891.5T454,901Q321,810,195,733.5T108,514q39-143,110-261.5t205.5-101Q558,169,710,182.5T856,348Q850,500,848.5,645.5Z" fill="url(#linear-gradient-2)"/>
  </g>
</svg>
